<svg data-v-0dd9719b="" version="1.0" xmlns="http://www.w3.org/2000/svg" xmlns:xlink="http://www.w3.org/1999/xlink" width="100%" height="100%" viewBox="0 0 340.000000 250.000000" preserveAspectRatio="xMidYMid meet" color-interpolation-filters="sRGB" style="margin: auto;"> <rect data-v-0dd9719b="" x="0" y="0" width="100%" height="100%" fill="#feffff" fill-opacity="1" class="background"></rect> <g data-v-0dd9719b="" fill="#78cfe1" class="iconlinesvg-g iconlinesvg" transform="translate(75.95249938964844,97.38577461242676)"><g class="tp-name"><g transform="translate(0, 0)"><g><g class="imagesvg"><g><rect fill="#78cfe1" fill-opacity="0" stroke-width="2" x="0" y="0" width="54.94071195398726" height="55.22845218989662" class="image-rect"></rect> <svg x="0" y="0" width="54.94071195398726" height="55.22845218989662" filtersec="colorsb9328215537" class="image-svg-svg primary" style="overflow: visible;"><svg viewBox="0 0 132.05099487304688 132.74200439453125" xmlns="http://www.w3.org/2000/svg"><path fill="none" pointer-events="none" d="M0 0h132.051v132.742H0z"></path><path d="M6.183 125.433l59.6-119.3 59.6 119.3z" class="st20" fill="#78cfe1"></path><path d="M65.383 125.433h60l-30-60z" class="st21" fill="#03bfd7"></path></svg></svg> <!----></g></g></g></g><g transform="translate(58, 3.954226094948311)"><g data-gra="path-name" fill="#78cfe1" transform="scale(1)"><path d="M0.84 0L12.48 0L14.37-13.46L21.71-13.46C32.83-13.46 39.26-20.73 40.23-29.45C41.15-37.77 36.92-46.02 25.68-46.02L7.28-46.02ZM15.79-23.79L17.42-35.16L24.18-35.16C27.56-35.16 29.05-32.83 28.67-29.77C28.28-26.65 26.20-23.73 22.55-23.79Z" transform="translate(-0.845, 46.67)"></path></g></g><g transform="translate(101, 3.954226094948311)"><g data-gra="path-name" fill="#78cfe1" transform="scale(1)"><path d="M1.82-15.15C0.33-4.62 9.10 0.65 18.66 0.65C28.67 0.65 38.48-4.62 39.98-15.15L42.25-30.88C43.75-41.41 34.91-46.67 25.35-46.67C15.79-46.67 5.66-41.47 4.09-30.88ZM15.73-30.88C16.25-34.32 20.35-36.08 24.12-36.08C27.89-36.08 31.14-34.32 30.62-30.88L28.34-15.47C27.82-11.83 23.73-10.14 19.96-10.14C16.45-10.14 13-11.83 13.46-15.15Z" transform="translate(-1.6529227817243883, 46.67)"></path></g></g><g transform="translate(145, 3.954226094948311)"><g data-gra="path-name" fill="#78cfe1" transform="scale(1)"><path d="M0.84 0L12.48 0L15.02-18.39L14.88-27.30L15.15-27.37L17.88-18.14L25.74 0L37.51 0L43.94-46.02L32.37-46.02L29.45-25.16L29.57-17.23L29.32-17.16L26.71-26.39L18.33-46.02L7.28-46.02Z" transform="translate(-0.845, 46.67)"></path></g></g></g> <!----></g><defs v-gra="od"></defs></svg>